# xmcd
#
# Track frame offsets:
#	151
#	23148
#	45191
#	63004
#	80299
#	99762
#	122757
#	144506
#	166097
#	194124
#	214485
#	234780
#
# Disc length: 3432 seconds
#
# Revision: 0
# Processed by: cddbd v1.4PL0 Copyright (c) Steve Scherf et al.
# Submitted via: audiograbber 1.81.03
#
DISCID=910d660c
DTITLE=Various (Purvag) - Yaroon
DYEAR=1900
DGENRE=
TTITLE0=Duur
TTITLE1=Tanha Dil
TTITLE2=Dekha Hai Aise Bhi
TTITLE3=Kya Soorat Hai
TTITLE4=Aap ki Dua
TTITLE5=Purani Jeans
TTITLE6=Dhoom Pichuk Dhoom
TTITLE7=Anjane
TTITLE8=Aasmaan Ke Paar
TTITLE9=Aankhon Mein Tera Hi Chehra
TTITLE10=Yaaron
TTITLE11=Sayonee
EXTD=Hindi Songs (Purvag)
EXTT0=
EXTT1=
EXTT2=
EXTT3=
EXTT4=
EXTT5=
EXTT6=
EXTT7=
EXTT8=
EXTT9=
EXTT10=
EXTT11=
PLAYORDER=
